<svg width="24" height="24" viewBox="0 0 24 24" fill="none" xmlns="http://www.w3.org/2000/svg">
<path d="M6.28002 14.9399L9.69002 11.5299C9.9855 11.2372 9.98773 10.7604 9.69502 10.4649C9.40231 10.1695 8.9255 10.1672 8.63002 10.4599L4.00002 15.1499C3.93193 15.2229 3.87771 15.3076 3.84002 15.3999C3.77004 15.5835 3.77004 15.7864 3.84002 15.9699C3.87771 16.0623 3.93193 16.147 4.00002 16.2199L8.69002 20.9099C8.83287 21.0471 9.02203 21.1256 9.22002 21.1299C9.41887 21.1298 9.60951 21.0506 9.75002 20.9099C9.89297 20.7707 9.97359 20.5795 9.97359 20.3799C9.97359 20.1804 9.89297 19.9892 9.75002 19.8499L6.31002 16.4399H15.31C15.7242 16.4399 16.06 16.1042 16.06 15.6899C16.06 15.2757 15.7242 14.9399 15.31 14.9399H6.28002Z" fill="#FCFAFA"/>
<path d="M20.19 5.99995C20.1403 5.91588 20.076 5.84138 20 5.77995L15.34 1.08995C15.0472 0.797492 14.5728 0.797492 14.28 1.08995C14.1371 1.22923 14.0565 1.42036 14.0565 1.61995C14.0565 1.81953 14.1371 2.01066 14.28 2.14995L17.69 5.56995H8.69002C8.27581 5.56995 7.94002 5.90573 7.94002 6.31995C7.94002 6.73416 8.27581 7.06995 8.69002 7.06995H17.69L14.28 10.4799C14.1371 10.6192 14.0565 10.8104 14.0565 11.0099C14.0565 11.2095 14.1371 11.4007 14.28 11.5399C14.4205 11.6806 14.6112 11.7598 14.81 11.7599C15.008 11.7556 15.1972 11.6771 15.34 11.5399L20 6.84995C20.0681 6.77704 20.1223 6.69232 20.16 6.59995C20.2476 6.41144 20.2584 6.19625 20.19 5.99995Z" fill="#FCFAFA"/>
</svg>
