<svg width="164" height="50" viewBox="0 0 164 50" fill="none" xmlns="http://www.w3.org/2000/svg">
<circle cx="25" cy="25" r="24.5" fill="#FCFAFA" stroke="#DBDFE6"/>
<circle cx="25" cy="25" r="24.5" transform="matrix(1 0 0 -1 114 50)" fill="#FCFAFA" stroke="#DBDFE6"/>
<circle cx="25" cy="25" r="24.5" transform="matrix(1 0 0 -1 56 50)" fill="#FCFAFA" stroke="#DBDFE6"/>
<path fill-rule="evenodd" clip-rule="evenodd" d="M19.3333 11.6667H29.2792C33.5594 11.6667 37.0292 15.2485 37.0292 19.6667V29.9334C37.0292 34.3517 33.5594 37.9334 29.2792 37.9334H19.3333C15.0531 37.9334 11.5833 34.3517 11.5833 29.9334V19.6667C11.5833 15.2485 15.0531 11.6667 19.3333 11.6667ZM35.0917 19.6667C35.0846 16.3561 32.4864 13.6741 29.2792 13.6667H19.3333C16.1261 13.6741 13.5279 16.3561 13.5208 19.6667V29.9334C13.5279 33.2441 16.1261 35.9261 19.3333 35.9334H29.2792C32.4864 35.9261 35.0846 33.2441 35.0917 29.9334V19.6667Z" fill="#F0B19E"/>
<path fill-rule="evenodd" clip-rule="evenodd" d="M18.7521 24.8001C18.7592 21.6367 21.2417 19.0741 24.3063 19.0667C27.3708 19.0741 29.8533 21.6367 29.8604 24.8001C29.8604 27.9665 27.3737 30.5334 24.3063 30.5334C21.2388 30.5334 18.7521 27.9665 18.7521 24.8001ZM27.9229 24.8001C27.9229 22.7382 26.3037 21.0667 24.3063 21.0667C22.3118 21.0741 20.6967 22.7413 20.6896 24.8001C20.6896 26.8619 22.3088 28.5334 24.3063 28.5334C26.3037 28.5334 27.9229 26.8619 27.9229 24.8001Z" fill="#F0B19E"/>
<path d="M29.0338 17.6734C29.0338 16.8744 29.6612 16.2267 30.4352 16.2267C31.2092 16.2267 31.8367 16.8744 31.8367 17.6734C31.8367 18.4724 31.2092 19.1201 30.4352 19.1201C29.6612 19.1201 29.0338 18.4724 29.0338 17.6734Z" fill="#F0B19E"/>
<path fill-rule="evenodd" clip-rule="evenodd" d="M75.3927 19.0001C73.9631 19.012 72.5331 19.0094 71.1034 19.0015C70.6994 18.9991 70.4993 19.1385 70.5 19.5983C70.509 24.7252 70.5055 29.8521 70.5065 34.9789C70.5066 35.1742 70.4767 35.3886 70.7171 35.4775C70.7263 35.5088 75.7665 35.5068 75.7801 35.4757C76.0454 35.3724 75.9919 35.1319 75.992 34.924C75.9943 29.8333 75.9902 24.7424 76 19.6517C76.0007 19.1897 75.8426 18.9962 75.3927 19.0001Z" fill="#F0B19E"/>
<path fill-rule="evenodd" clip-rule="evenodd" d="M73.25 12.125C71.7313 12.125 70.5 13.3563 70.5 14.875C70.5 16.3938 71.7313 17.625 73.25 17.625C74.7687 17.625 76 16.3938 76 14.875C76 13.3563 74.7687 12.125 73.25 12.125Z" fill="#F0B19E"/>
<path fill-rule="evenodd" clip-rule="evenodd" d="M93.8037 34.7097C93.8069 32.0818 93.8203 29.4538 93.799 26.8261C93.7896 25.6751 93.7483 24.521 93.5064 23.3882C93.1099 21.5309 92.2175 20.0808 90.4449 19.4046C89.2623 18.9536 88.0259 18.9245 86.791 19.0994C85.7536 19.2463 84.798 19.6414 83.9273 20.3759C83.9273 20.1087 83.9264 19.9315 83.9276 19.7545C83.9302 19.357 83.7452 19.1773 83.3641 19.1791C82.0098 19.1854 80.6555 19.1838 79.3011 19.1802C78.9283 19.1791 78.7495 19.3331 78.75 19.7521C78.7572 24.7948 78.7545 29.8375 78.7547 34.8801C78.7547 35.0735 78.7293 35.2793 78.9531 35.3745C78.9767 35.4057 83.8661 35.4174 83.8659 35.3855C84.1866 35.2415 84.088 34.9375 84.0885 34.69C84.093 32.2029 84.0781 29.7156 84.0915 27.2285C84.0956 26.4508 84.1243 25.6651 84.4602 24.9409C84.8583 24.0828 85.6821 23.711 86.8424 23.8632C87.6406 23.9678 88.1502 24.5083 88.3088 25.45C88.3676 25.7979 88.4115 26.1536 88.4135 26.506C88.4291 29.2418 88.4312 31.9775 88.4426 34.7133C88.4437 34.966 88.3679 35.2643 88.6933 35.3912C88.6821 35.4271 93.6053 35.4054 93.6066 35.3706C93.8715 35.2161 93.8034 34.9468 93.8037 34.7097Z" fill="#F0B19E"/>
<path d="M141.725 23.0634H143.183C143.372 23.0634 143.552 22.9912 143.684 22.8629C143.815 22.7346 143.887 22.5611 143.883 22.3815V20.155C143.885 19.8068 143.605 19.516 143.242 19.487C143.242 19.487 142.206 19.4035 140.938 19.4035C137.817 19.4035 136.096 21.1708 136.096 24.3715V26.8346H133.223C133.036 26.8308 132.856 26.8999 132.724 27.026C132.591 27.1521 132.519 27.3243 132.523 27.5026V29.5343C132.519 29.7126 132.591 29.8848 132.724 30.0109C132.856 30.137 133.036 30.2061 133.223 30.2023H136.052V38.0787H140.31V30.2023H142.877C143.23 30.1989 143.527 29.9507 143.577 29.6178L143.84 27.5861C143.866 27.3938 143.802 27.2001 143.665 27.0573C143.531 26.9148 143.34 26.8337 143.14 26.8346H140.31V24.455C140.31 23.7025 140.937 23.086 141.725 23.0634Z" fill="#F0B19E"/>
<path fill-rule="evenodd" clip-rule="evenodd" d="M124.138 25.8466C124.138 18.2302 130.608 12.0559 138.59 12.0559C142.423 12.0559 146.099 13.5089 148.809 16.0951C151.519 18.6814 153.042 22.1891 153.042 25.8466C153.042 33.463 146.571 39.6373 138.59 39.6373C130.608 39.6373 124.138 33.463 124.138 25.8466ZM150.854 25.8466C150.854 19.383 145.363 14.1433 138.59 14.1433C131.823 14.1586 126.341 19.3894 126.325 25.8466C126.325 32.3101 131.816 37.5499 138.59 37.5499C145.363 37.5499 150.854 32.3101 150.854 25.8466Z" fill="#F0B19E"/>
</svg>
