<svg width="18" height="19" viewBox="0 0 18 19" fill="none" xmlns="http://www.w3.org/2000/svg">
<path fill-rule="evenodd" clip-rule="evenodd" d="M16.5576 2H13.7303L12.4491 0.68C11.9801 0.244588 11.349 0.000410383 10.6913 0H7.59938C6.93033 0.00528604 6.29073 0.260562 5.82044 0.71L4.56037 2H1.73313C1.29453 2 0.938965 2.33579 0.938965 2.75C0.938965 3.16421 1.29453 3.5 1.73313 3.5H16.5576C16.9962 3.5 17.3517 3.16421 17.3517 2.75C17.3517 2.33579 16.9962 2 16.5576 2ZM6.96404 1.74C7.13304 1.58138 7.36112 1.49163 7.59938 1.49H10.6913C10.9197 1.48936 11.1396 1.57171 11.3055 1.72L11.5702 1.99H6.7205L6.96404 1.74Z" fill="black"/>
<path fill-rule="evenodd" clip-rule="evenodd" d="M1.18251 6.52V14C1.18251 16.4632 3.29691 18.46 5.90515 18.46H12.3856C14.9938 18.46 17.1082 16.4632 17.1082 14V6.52C17.1082 5.41543 16.16 4.52 14.9904 4.52H3.34264C2.77367 4.50925 2.22406 4.71521 1.81769 5.09145C1.41132 5.4677 1.18239 5.98256 1.18251 6.52ZM6.76285 10.05C6.76285 10.4642 6.40729 10.8 5.96869 10.8C5.53008 10.8 5.17452 10.4642 5.17452 10.05V7.68C5.17452 7.26579 5.53008 6.93 5.96869 6.93C6.40729 6.93 6.76285 7.26579 6.76285 7.68V10.05ZM9.14535 14.75C9.58396 14.75 9.93952 14.4142 9.93952 14V7.68C9.93952 7.26579 9.58396 6.93 9.14535 6.93C8.70675 6.93 8.35119 7.26579 8.35119 7.68V14C8.35119 14.4142 8.70675 14.75 9.14535 14.75ZM13.1162 10.05C13.1162 10.4642 12.7606 10.8 12.322 10.8C11.8834 10.8 11.5279 10.4642 11.5279 10.05V7.68C11.5279 7.26579 11.8834 6.93 12.322 6.93C12.7606 6.93 13.1162 7.26579 13.1162 7.68V10.05Z" fill="black"/>
</svg>
